<?xml version="1.0" encoding="UTF-8"?>
<!DOCTYPE svg PUBLIC "-//W3C//DTD SVG 1.1//EN" "http://www.w3.org/Graphics/SVG/1.1/DTD/svg11.dtd">
<svg xmlns="http://www.w3.org/2000/svg" version="1.1" width="500px" height="500px" style="shape-rendering:geometricPrecision; text-rendering:geometricPrecision; image-rendering:optimizeQuality; fill-rule:evenodd; clip-rule:evenodd" xmlns:xlink="http://www.w3.org/1999/xlink">
<g><path style="opacity:0.278" fill="#b1e8fb" d="M 218.5,-0.5 C 222.167,-0.5 225.833,-0.5 229.5,-0.5C 229.5,-0.166667 229.5,0.166667 229.5,0.5C 224.797,0.437184 220.13,0.770517 215.5,1.5C 215.167,1.5 214.833,1.5 214.5,1.5C 215.833,0.833333 217.167,0.166667 218.5,-0.5 Z"/></g>
<g><path style="opacity:1" fill="#3092da" d="M 229.5,0.5 C 229.5,0.166667 229.5,-0.166667 229.5,-0.5C 240.833,-0.5 252.167,-0.5 263.5,-0.5C 264.398,0.157674 265.398,0.824341 266.5,1.5C 266.291,2.08605 265.957,2.58605 265.5,3C 266.966,3.63547 268.3,4.46881 269.5,5.5C 271.149,3.56255 273.315,2.56255 276,2.5C 285.936,3.44268 295.769,4.94268 305.5,7C 303.285,7.17049 301.285,7.83716 299.5,9C 304.161,9.16939 308.828,9.00272 313.5,8.5C 313.703,10.3904 313.037,11.8904 311.5,13C 317.487,13.036 323.487,12.8693 329.5,12.5C 333.277,12.9337 336.61,14.267 339.5,16.5C 346.332,20.9155 353.665,24.2488 361.5,26.5C 361.833,26.5 362.167,26.5 362.5,26.5C 361.487,33.1439 360.987,39.8106 361,46.5C 361.333,46.1667 361.667,45.8333 362,45.5C 363,48.1667 364,50.8333 365,53.5C 365.816,54.8228 366.983,55.4894 368.5,55.5C 370.63,57.1271 372.63,58.9604 374.5,61C 373.069,61.4652 371.903,62.2986 371,63.5C 362.75,77.0027 354.25,90.336 345.5,103.5C 341.492,101.997 337.325,101.33 333,101.5C 328.867,101.286 325.034,101.952 321.5,103.5C 306.011,111.022 299.677,123.356 302.5,140.5C 301.994,144.007 302.66,147.174 304.5,150C 302.381,152.218 302.048,154.718 303.5,157.5C 305.069,156.286 305.902,154.619 306,152.5C 307.892,153.617 308.725,155.284 308.5,157.5C 309.873,157.343 311.207,157.51 312.5,158C 314.373,160.209 316.54,162.042 319,163.5C 319.622,217.098 319.622,270.765 319,324.5C 318.581,325.672 317.915,326.672 317,327.5C 315.691,324.949 313.857,322.949 311.5,321.5C 311.5,321.167 311.5,320.833 311.5,320.5C 311.657,319.127 311.49,317.793 311,316.5C 307.5,314.725 307,312.558 309.5,310C 308,309.167 306.833,308 306,306.5C 305.465,308.271 304.631,308.604 303.5,307.5C 301.128,304.296 298.961,300.962 297,297.5C 296.316,296.216 296.483,295.049 297.5,294C 296.033,292.902 295.199,291.402 295,289.5C 294.395,291.481 293.395,291.815 292,290.5C 291.51,289.207 291.343,287.873 291.5,286.5C 290.5,286.5 289.5,286.5 288.5,286.5C 288.719,285.325 288.386,284.325 287.5,283.5C 286.358,282.174 285.024,281.174 283.5,280.5C 259.45,246.447 235.784,212.114 212.5,177.5C 210.577,172.92 208.743,168.253 207,163.5C 205.865,163.273 204.698,162.94 203.5,162.5C 205.938,160.344 206.105,158.011 204,155.5C 201.943,154.022 200.61,152.022 200,149.5C 199.667,151.167 199.333,152.833 199,154.5C 198.683,152.699 198.016,152.366 197,153.5C 196.982,151.203 197.149,148.869 197.5,146.5C 199.474,144.572 200.974,142.239 202,139.5C 202.723,133.896 202.223,128.396 200.5,123C 201.422,120.495 201.922,117.995 202,115.5C 201,116.5 200,117.5 199,118.5C 197.625,116.624 196.458,114.624 195.5,112.5C 194.583,111.873 193.583,111.539 192.5,111.5C 192.5,111.167 192.5,110.833 192.5,110.5C 190.683,108.988 189.683,106.988 189.5,104.5C 185.048,103.311 180.714,101.811 176.5,100C 170.843,99.5006 165.176,99.3339 159.5,99.5C 158.683,96.5214 157.849,93.5214 157,90.5C 155.989,91.3366 154.822,91.67 153.5,91.5C 146.06,82.3888 139.394,72.7222 133.5,62.5C 132.866,59.3577 131.533,56.5244 129.5,54C 131.612,47.167 133.612,40.3336 135.5,33.5C 134.5,33.5 133.5,33.5 132.5,33.5C 132.286,31.8561 132.62,30.3561 133.5,29C 135.61,28.4456 137.61,27.6123 139.5,26.5C 143.707,27.8938 147.707,27.3938 151.5,25C 150.5,24.1667 149.5,23.3333 148.5,22.5C 156.516,18.8299 164.516,15.1632 172.5,11.5C 175.854,9.74241 179.521,8.74241 183.5,8.5C 188.544,8.82748 193.544,8.49415 198.5,7.5C 199.5,6.66667 200.5,5.83333 201.5,5C 211.27,4.12452 220.936,2.79118 230.5,1C 230.272,0.601226 229.938,0.434559 229.5,0.5 Z"/></g>
<g><path style="opacity:0.69" fill="#84b8df" d="M 214.5,1.5 C 214.833,1.5 215.167,1.5 215.5,1.5C 212.026,2.52495 208.36,3.19162 204.5,3.5C 204.5,3.16667 204.5,2.83333 204.5,2.5C 207.786,1.79287 211.119,1.45954 214.5,1.5 Z"/></g>
<g><path style="opacity:1" fill="#4191cf" d="M 229.5,0.5 C 229.938,0.434559 230.272,0.601226 230.5,1C 220.936,2.79118 211.27,4.12452 201.5,5C 200.5,5.83333 199.5,6.66667 198.5,7.5C 193.544,8.49415 188.544,8.82748 183.5,8.5C 190.042,5.45645 197.042,3.78978 204.5,3.5C 208.36,3.19162 212.026,2.52495 215.5,1.5C 220.13,0.770517 224.797,0.437184 229.5,0.5 Z"/></g>
<g><path style="opacity:0.165" fill="#e8fbff" d="M 204.5,2.5 C 204.5,2.83333 204.5,3.16667 204.5,3.5C 197.042,3.78978 190.042,5.45645 183.5,8.5C 179.521,8.74241 175.854,9.74241 172.5,11.5C 171.167,11.5 169.833,11.5 168.5,11.5C 171.462,9.35222 174.795,7.68556 178.5,6.5C 179.086,6.70931 179.586,7.04265 180,7.5C 187.903,4.6194 196.069,2.95273 204.5,2.5 Z"/></g>
<g><path style="opacity:1" fill="#529bd6" d="M 263.5,-0.5 C 268.833,-0.5 274.167,-0.5 279.5,-0.5C 285.388,0.919612 291.388,2.25295 297.5,3.5C 308.36,6.21166 319.026,9.21166 329.5,12.5C 323.487,12.8693 317.487,13.036 311.5,13C 313.037,11.8904 313.703,10.3904 313.5,8.5C 308.828,9.00272 304.161,9.16939 299.5,9C 301.285,7.83716 303.285,7.17049 305.5,7C 295.769,4.94268 285.936,3.44268 276,2.5C 273.315,2.56255 271.149,3.56255 269.5,5.5C 268.3,4.46881 266.966,3.63547 265.5,3C 265.957,2.58605 266.291,2.08605 266.5,1.5C 265.398,0.824341 264.398,0.157674 263.5,-0.5 Z"/></g>
<g><path style="opacity:0.998" fill="#4494d2" d="M 168.5,11.5 C 169.833,11.5 171.167,11.5 172.5,11.5C 164.516,15.1632 156.516,18.8299 148.5,22.5C 149.5,23.3333 150.5,24.1667 151.5,25C 147.707,27.3938 143.707,27.8938 139.5,26.5C 137.61,27.6123 135.61,28.4456 133.5,29C 132.62,30.3561 132.286,31.8561 132.5,33.5C 132.167,33.5 131.833,33.5 131.5,33.5C 130.167,32.1667 130.167,30.8333 131.5,29.5C 132.574,28.1154 133.907,26.9487 135.5,26C 146.59,21.1161 157.59,16.2827 168.5,11.5 Z"/></g>
<g><path style="opacity:0.961" fill="#4893cb" d="M 339.5,16.5 C 347.429,18.8025 354.762,22.1358 361.5,26.5C 353.665,24.2488 346.332,20.9155 339.5,16.5 Z"/></g>
<g><path style="opacity:1" fill="#f8fdfd" d="M 407.5,66.5 C 400.931,68.214 394.264,68.714 387.5,68C 385.649,67.1628 383.816,66.3295 382,65.5C 374.612,77.3835 367.445,89.3835 360.5,101.5C 357.183,103.786 355.85,106.786 356.5,110.5C 354.049,109.098 351.716,107.431 349.5,105.5C 348.117,108.076 347.283,107.742 347,104.5C 345.686,105.313 344.519,106.313 343.5,107.5C 342.509,105.677 341.176,104.177 339.5,103C 333.472,102.359 327.472,102.526 321.5,103.5C 325.034,101.952 328.867,101.286 333,101.5C 337.325,101.33 341.492,101.997 345.5,103.5C 354.25,90.336 362.75,77.0027 371,63.5C 371.903,62.2986 373.069,61.4652 374.5,61C 372.63,58.9604 370.63,57.1271 368.5,55.5C 364.153,48.0971 362.653,40.0971 364,31.5C 380.811,40.4862 396.311,51.3196 410.5,64C 409.058,64.3768 408.058,65.2101 407.5,66.5 Z"/></g>
<g><path style="opacity:1" fill="#fcfefe" d="M 131.5,33.5 C 132.221,40.7536 130.888,47.5869 127.5,54C 128.96,57.2806 130.96,60.1139 133.5,62.5C 139.394,72.7222 146.06,82.3888 153.5,91.5C 154.854,95.0317 156.854,98.1984 159.5,101C 171.982,99.4431 182.982,102.61 192.5,110.5C 192.5,110.833 192.5,111.167 192.5,111.5C 193.925,112.922 194.925,114.589 195.5,116.5C 197.189,121.134 198.189,125.967 198.5,131C 197.455,136.737 196.455,142.57 195.5,148.5C 194.782,150.137 194.616,151.803 195,153.5C 200.61,161.745 206.443,169.745 212.5,177.5C 235.784,212.114 259.45,246.447 283.5,280.5C 292.353,294.221 301.687,307.554 311.5,320.5C 311.5,320.833 311.5,321.167 311.5,321.5C 313.774,325.772 316.441,329.772 319.5,333.5C 319.783,334.289 320.283,334.956 321,335.5C 321.832,277.332 321.665,219.332 320.5,161.5C 311.627,156.961 305.627,149.961 302.5,140.5C 299.677,123.356 306.011,111.022 321.5,103.5C 327.472,102.526 333.472,102.359 339.5,103C 341.176,104.177 342.509,105.677 343.5,107.5C 344.519,106.313 345.686,105.313 347,104.5C 347.283,107.742 348.117,108.076 349.5,105.5C 351.716,107.431 354.049,109.098 356.5,110.5C 367.378,123.379 368.378,137.045 359.5,151.5C 357.833,153.833 355.833,155.833 353.5,157.5C 351.33,159.086 348.996,160.42 346.5,161.5C 345.883,161.611 345.383,161.944 345,162.5C 344.333,226.167 344.333,289.833 345,353.5C 346.444,355.155 348.278,355.822 350.5,355.5C 355.167,358.167 358.833,361.833 361.5,366.5C 366.398,375.799 366.732,385.299 362.5,395C 364.814,399.145 367.48,402.978 370.5,406.5C 373.092,412.024 376.425,417.024 380.5,421.5C 382.364,424.723 384.364,427.89 386.5,431C 391.5,431.333 396.5,431.667 401.5,432C 404.377,432.956 407.044,434.289 409.5,436C 395.483,448 380.483,458.5 364.5,467.5C 364.167,467.5 363.833,467.5 363.5,467.5C 362.647,460.366 363.98,453.699 367.5,447.5C 366.5,445.187 365.166,443.187 363.5,441.5C 357.857,432.535 351.857,423.868 345.5,415.5C 344.608,413.286 342.942,412.286 340.5,412.5C 334.82,413.831 329.153,413.831 323.5,412.5C 302.134,401.383 296.967,385.05 308,363.5C 308.667,362.5 308.667,361.5 308,360.5C 293.724,339.592 279.224,318.925 264.5,298.5C 258.571,288.303 251.904,278.636 244.5,269.5C 239.992,261.812 234.992,254.478 229.5,247.5C 225.19,240.534 220.523,233.867 215.5,227.5C 210.903,219.301 205.57,211.635 199.5,204.5C 194.992,196.812 189.992,189.478 184.5,182.5C 184.267,180.938 183.6,179.605 182.5,178.5C 182.217,177.711 181.717,177.044 181,176.5C 180.168,235.335 180.335,294.001 181.5,352.5C 183.181,354.008 185.181,355.008 187.5,355.5C 188.5,357.167 189.833,358.5 191.5,359.5C 201.94,371.877 203.273,385.21 195.5,399.5C 185.209,411.994 172.209,415.994 156.5,411.5C 156.5,411.167 156.5,410.833 156.5,410.5C 156.631,409.624 156.298,408.957 155.5,408.5C 149.816,407.666 146.983,404.666 147,399.5C 145.586,400.413 144.086,400.413 142.5,399.5C 141.737,397.632 140.737,395.965 139.5,394.5C 137.306,386.591 136.973,378.591 138.5,370.5C 139.401,369.71 140.068,368.71 140.5,367.5C 143.188,366.976 144.688,365.309 145,362.5C 145.414,362.957 145.914,363.291 146.5,363.5C 147.429,362.311 147.762,360.978 147.5,359.5C 150.685,357.722 154.018,356.056 157.5,354.5C 157.832,290.331 157.499,226.331 156.5,162.5C 155.035,161.263 153.368,160.263 151.5,159.5C 147.806,156.473 144.473,153.14 141.5,149.5C 136.685,139.289 136.352,128.956 140.5,118.5C 138.546,114.234 135.879,110.567 132.5,107.5C 125.092,95.6906 117.426,84.024 109.5,72.5C 109.617,70.5165 108.95,68.8498 107.5,67.5C 101.848,66.6297 96.1811,65.963 90.5,65.5C 90.281,64.325 90.6143,63.325 91.5,62.5C 94.9062,59.483 98.2395,56.483 101.5,53.5C 110.775,45.8542 120.775,39.1876 131.5,33.5 Z"/></g>
<g><path style="opacity:0.931" fill="#4a95ce" d="M 362.5,26.5 C 382.153,36.4969 400.153,48.8303 416.5,63.5C 415.07,63.5792 413.736,63.2458 412.5,62.5C 411.494,62.9377 411.494,63.6043 412.5,64.5C 410.978,65.562 409.312,66.2287 407.5,66.5C 408.058,65.2101 409.058,64.3768 410.5,64C 396.311,51.3196 380.811,40.4862 364,31.5C 362.653,40.0971 364.153,48.0971 368.5,55.5C 366.983,55.4894 365.816,54.8228 365,53.5C 364,50.8333 363,48.1667 362,45.5C 361.667,45.8333 361.333,46.1667 361,46.5C 360.987,39.8106 361.487,33.1439 362.5,26.5 Z"/></g>
<g><path style="opacity:1" fill="#5199d1" d="M 131.5,33.5 C 131.833,33.5 132.167,33.5 132.5,33.5C 133.5,33.5 134.5,33.5 135.5,33.5C 133.612,40.3336 131.612,47.167 129.5,54C 131.533,56.5244 132.866,59.3577 133.5,62.5C 130.96,60.1139 128.96,57.2806 127.5,54C 130.888,47.5869 132.221,40.7536 131.5,33.5 Z"/></g>
<g><path style="opacity:0.933" fill="#4994ce" d="M 131.5,29.5 C 130.167,30.8333 130.167,32.1667 131.5,33.5C 120.775,39.1876 110.775,45.8542 101.5,53.5C 96.1102,56.7103 91.1102,60.5436 86.5,65C 88.9703,66.0214 91.3036,67.1881 93.5,68.5C 89.8604,68.5721 87.027,67.2387 85,64.5C 83.6439,65.3802 82.1439,65.7135 80.5,65.5C 95.8308,51.1746 112.831,39.1746 131.5,29.5 Z"/></g>
<g><path style="opacity:1" fill="#e5f9fe" d="M 101.5,53.5 C 98.2395,56.483 94.9062,59.483 91.5,62.5C 90.6143,63.325 90.281,64.325 90.5,65.5C 96.1811,65.963 101.848,66.6297 107.5,67.5C 108.95,68.8498 109.617,70.5165 109.5,72.5C 109.167,72.5 108.833,72.5 108.5,72.5C 108.489,70.9826 107.823,69.8159 106.5,69C 102.848,68.5014 99.1817,68.3347 95.5,68.5C 94.8333,68.5 94.1667,68.5 93.5,68.5C 91.3036,67.1881 88.9703,66.0214 86.5,65C 91.1102,60.5436 96.1102,56.7103 101.5,53.5 Z"/></g>
<g><path style="opacity:1" fill="#548fbb" d="M 95.5,68.5 C 99.1817,68.3347 102.848,68.5014 106.5,69C 107.823,69.8159 108.489,70.9826 108.5,72.5C 107.373,71.8783 106.373,71.045 105.5,70C 101.975,69.8213 98.6414,69.3213 95.5,68.5 Z"/></g>
<g><path style="opacity:1" fill="#3092da" d="M 93.5,68.5 C 94.1667,68.5 94.8333,68.5 95.5,68.5C 98.6414,69.3213 101.975,69.8213 105.5,70C 106.373,71.045 107.373,71.8783 108.5,72.5C 108.833,72.5 109.167,72.5 109.5,72.5C 117.426,84.024 125.092,95.6906 132.5,107.5C 133.18,109.39 133.347,111.39 133,113.5C 134.264,115.607 136.097,116.607 138.5,116.5C 138.762,117.978 138.429,119.311 137.5,120.5C 136.158,119.098 135.324,119.431 135,121.5C 134.261,119.779 133.427,118.113 132.5,116.5C 131.422,118.997 129.589,120.663 127,121.5C 126.454,124.899 126.787,128.232 128,131.5C 128.87,130.892 129.37,130.059 129.5,129C 128.538,124.467 130.538,122.633 135.5,123.5C 135.194,132.117 136.527,140.451 139.5,148.5C 140.183,148.863 140.85,149.196 141.5,149.5C 144.473,153.14 147.806,156.473 151.5,159.5C 151.415,160.995 152.081,161.995 153.5,162.5C 154.5,225.496 154.833,288.496 154.5,351.5C 153.833,292.999 153.167,234.332 152.5,175.5C 151.667,233.83 151.167,292.164 151,350.5C 148.858,352.827 146.358,354.493 143.5,355.5C 143.33,354.178 143.663,353.011 144.5,352C 143.975,351.308 143.308,350.808 142.5,350.5C 141.256,352.437 139.756,354.104 138,355.5C 136.005,353.77 133.838,352.437 131.5,351.5C 132.089,354.504 133.089,357.337 134.5,360C 133.383,362.731 132.717,365.565 132.5,368.5C 131.5,368.5 130.5,368.5 129.5,368.5C 129.069,373.032 129.569,377.365 131,381.5C 131.333,378.167 131.667,374.833 132,371.5C 133.676,370.939 135.009,369.939 136,368.5C 136.333,365.5 136.667,362.5 137,359.5C 138.942,356.838 140.775,356.504 142.5,358.5C 140.174,362.144 138.841,366.144 138.5,370.5C 136.973,378.591 137.306,386.591 139.5,394.5C 139.433,396.401 139.767,398.234 140.5,400C 139.293,401.3 138.626,402.8 138.5,404.5C 132.398,404.81 131.065,407.477 134.5,412.5C 133.127,412.343 131.793,412.51 130.5,413C 131.711,413.893 131.711,414.726 130.5,415.5C 129.476,414.147 128.143,413.48 126.5,413.5C 126.812,417.023 125.479,418.356 122.5,417.5C 119.587,419.901 119.921,421.234 123.5,421.5C 123.5,423.167 123.5,424.833 123.5,426.5C 122.243,429.427 120.243,431.761 117.5,433.5C 111.781,431.395 105.781,430.395 99.5,430.5C 96.4098,430.522 93.7432,431.188 91.5,432.5C 90.791,433.404 89.791,433.737 88.5,433.5C 87.2436,433.904 86.0769,434.571 85,435.5C 83.5936,434.586 82.0936,433.92 80.5,433.5C 73.8333,428.833 68.1667,423.167 63.5,416.5C 60.3403,410.153 56.507,404.153 52,398.5C 49.8784,396.244 47.3784,394.577 44.5,393.5C 35.8724,381.246 28.539,368.246 22.5,354.5C 21.7224,350.245 20.3891,346.079 18.5,342C 19.4495,339.765 19.4495,337.598 18.5,335.5C 17.8076,336.025 17.3076,336.692 17,337.5C 16.1824,333.538 14.349,330.205 11.5,327.5C 10.962,325.883 10.6287,324.216 10.5,322.5C 9.83659,318.51 9.16992,314.51 8.5,310.5C 9.28584,306.844 9.4525,303.177 9,299.5C 7.83716,301.285 7.17049,303.285 7,305.5C 4.94257,295.767 3.44257,285.934 2.5,276C 2.59433,273.625 2.92766,271.291 3.5,269C 2.52749,268.651 1.69416,267.818 1,266.5C 0.535656,267.094 0.368989,267.761 0.5,268.5C 0.166667,268.5 -0.166667,268.5 -0.5,268.5C -0.5,255.5 -0.5,242.5 -0.5,229.5C 0.558465,228.4 1.3918,227.066 2,225.5C 2.49935,220.177 2.66602,214.844 2.5,209.5C 6.2858,183.638 14.2858,159.305 26.5,136.5C 29.5769,133.951 31.4103,134.951 32,139.5C 31.9418,131.577 33.9418,124.243 38,117.5C 39.7067,116.862 41.54,116.862 43.5,117.5C 43.3285,115.508 43.9951,113.842 45.5,112.5C 45.0548,109.947 45.0548,107.28 45.5,104.5C 55.4003,89.9321 67.067,76.9321 80.5,65.5C 82.1439,65.7135 83.6439,65.3802 85,64.5C 87.027,67.2387 89.8604,68.5721 93.5,68.5 Z"/></g>
<g><path style="opacity:1" fill="#3092da" d="M 416.5,63.5 C 440.23,83.9637 458.896,108.297 472.5,136.5C 472.662,138.527 472.495,140.527 472,142.5C 466.23,144.342 466.396,146.008 472.5,147.5C 472.281,146.325 472.614,145.325 473.5,144.5C 475.086,146.173 475.753,148.173 475.5,150.5C 476.675,150.281 477.675,150.614 478.5,151.5C 480.371,155.187 480.371,158.687 478.5,162C 478.755,163.326 479.422,164.326 480.5,165C 477.319,169.773 478.153,173.606 483,176.5C 484.234,179.42 485.234,182.42 486,185.5C 487.117,184.051 487.784,182.384 488,180.5C 489.244,183.66 490.078,186.993 490.5,190.5C 491.851,195.066 493.518,199.399 495.5,203.5C 495.5,204.167 495.5,204.833 495.5,205.5C 496.004,213.858 496.837,222.191 498,230.5C 498.232,231.737 498.732,232.737 499.5,233.5C 499.5,245.167 499.5,256.833 499.5,268.5C 498.527,270.948 498.194,273.615 498.5,276.5C 496.782,278.364 495.615,280.697 495,283.5C 494.667,288.167 494.333,292.833 494,297.5C 489.935,301.061 488.768,305.394 490.5,310.5C 489.83,314.51 489.163,318.51 488.5,322.5C 482.9,342.019 474.9,360.353 464.5,377.5C 460.656,378.988 458.322,381.821 457.5,386C 456.552,386.483 455.552,386.649 454.5,386.5C 454.5,388.5 454.5,390.5 454.5,392.5C 451.58,397.268 448.414,401.934 445,406.5C 443.296,408.373 441.463,410.04 439.5,411.5C 437.801,411.34 436.134,411.506 434.5,412C 435.517,413.049 435.684,414.216 435,415.5C 433.127,418.605 430.46,420.605 427,421.5C 426.506,423.134 426.34,424.801 426.5,426.5C 423.064,430.057 419.397,433.391 415.5,436.5C 411.698,434.604 407.698,432.771 403.5,431C 398.177,430.501 392.844,430.334 387.5,430.5C 387.649,429.448 387.483,428.448 387,427.5C 384.943,425.272 382.776,423.272 380.5,421.5C 376.425,417.024 373.092,412.024 370.5,406.5C 369.391,403.267 368.558,399.934 368,396.5C 366.01,397.399 364.843,396.565 364.5,394C 367.305,385.054 367.138,376.22 364,367.5C 363.329,366.748 362.496,366.414 361.5,366.5C 358.833,361.833 355.167,358.167 350.5,355.5C 349.833,354.833 349.167,354.167 348.5,353.5C 347.507,290.208 347.174,226.875 347.5,163.5C 348.675,163.719 349.675,163.386 350.5,162.5C 352.297,161.305 353.297,159.638 353.5,157.5C 355.833,155.833 357.833,153.833 359.5,151.5C 363.003,151.665 365.003,149.998 365.5,146.5C 367.134,137.198 366.801,128.032 364.5,119C 364.833,118.5 365.167,118 365.5,117.5C 366.609,118.59 367.609,118.59 368.5,117.5C 364.181,114.551 363.181,110.884 365.5,106.5C 364.244,105.97 362.744,105.97 361,106.5C 359.372,105.038 359.205,103.372 360.5,101.5C 367.445,89.3835 374.612,77.3835 382,65.5C 383.816,66.3295 385.649,67.1628 387.5,68C 394.264,68.714 400.931,68.214 407.5,66.5C 409.312,66.2287 410.978,65.562 412.5,64.5C 411.494,63.6043 411.494,62.9377 412.5,62.5C 413.736,63.2458 415.07,63.5792 416.5,63.5 Z"/></g>
<g><path style="opacity:1" fill="#4e98d2" d="M 192.5,110.5 C 182.982,102.61 171.982,99.4431 159.5,101C 156.854,98.1984 154.854,95.0317 153.5,91.5C 154.822,91.67 155.989,91.3366 157,90.5C 157.849,93.5214 158.683,96.5214 159.5,99.5C 165.176,99.3339 170.843,99.5006 176.5,100C 180.714,101.811 185.048,103.311 189.5,104.5C 189.683,106.988 190.683,108.988 192.5,110.5 Z"/></g>
<g><path style="opacity:1" fill="#4193d1" d="M 45.5,104.5 C 45.0548,107.28 45.0548,109.947 45.5,112.5C 43.9951,113.842 43.3285,115.508 43.5,117.5C 41.54,116.862 39.7067,116.862 38,117.5C 33.9418,124.243 31.9418,131.577 32,139.5C 31.4103,134.951 29.5769,133.951 26.5,136.5C 31.8293,125.165 38.1626,114.498 45.5,104.5 Z"/></g>
<g><path style="opacity:1" fill="#3d92d3" d="M 360.5,101.5 C 359.205,103.372 359.372,105.038 361,106.5C 362.744,105.97 364.244,105.97 365.5,106.5C 363.181,110.884 364.181,114.551 368.5,117.5C 367.609,118.59 366.609,118.59 365.5,117.5C 365.167,118 364.833,118.5 364.5,119C 366.801,128.032 367.134,137.198 365.5,146.5C 365.003,149.998 363.003,151.665 359.5,151.5C 368.378,137.045 367.378,123.379 356.5,110.5C 355.85,106.786 357.183,103.786 360.5,101.5 Z"/></g>
<g><path style="opacity:1" fill="#4492cb" d="M 192.5,111.5 C 193.583,111.539 194.583,111.873 195.5,112.5C 196.458,114.624 197.625,116.624 199,118.5C 200,117.5 201,116.5 202,115.5C 201.922,117.995 201.422,120.495 200.5,123C 202.223,128.396 202.723,133.896 202,139.5C 200.974,142.239 199.474,144.572 197.5,146.5C 200.238,139.753 201.071,132.753 200,125.5C 199.337,121.965 197.837,118.965 195.5,116.5C 194.925,114.589 193.925,112.922 192.5,111.5 Z"/></g>
<g><path style="opacity:1" fill="#3e92d4" d="M 132.5,107.5 C 135.879,110.567 138.546,114.234 140.5,118.5C 136.352,128.956 136.685,139.289 141.5,149.5C 140.85,149.196 140.183,148.863 139.5,148.5C 136.527,140.451 135.194,132.117 135.5,123.5C 130.538,122.633 128.538,124.467 129.5,129C 129.37,130.059 128.87,130.892 128,131.5C 126.787,128.232 126.454,124.899 127,121.5C 129.589,120.663 131.422,118.997 132.5,116.5C 133.427,118.113 134.261,119.779 135,121.5C 135.324,119.431 136.158,119.098 137.5,120.5C 138.429,119.311 138.762,117.978 138.5,116.5C 136.097,116.607 134.264,115.607 133,113.5C 133.347,111.39 133.18,109.39 132.5,107.5 Z"/></g>
<g><path style="opacity:0.122" fill="#e5fafe" d="M 168.5,11.5 C 157.59,16.2827 146.59,21.1161 135.5,26C 133.907,26.9487 132.574,28.1154 131.5,29.5C 112.831,39.1746 95.8308,51.1746 80.5,65.5C 67.067,76.9321 55.4003,89.9321 45.5,104.5C 38.1626,114.498 31.8293,125.165 26.5,136.5C 14.2858,159.305 6.2858,183.638 2.5,209.5C 1.23813,214.791 0.238132,220.125 -0.5,225.5C -0.5,221.5 -0.5,217.5 -0.5,213.5C 10.9537,143.729 44.9537,87.8953 101.5,46C 121.887,30.7948 144.22,19.2948 168.5,11.5 Z"/></g>
<g><path style="opacity:0.082" fill="#e4f9fe" d="M 297.5,3.5 C 321.239,6.801 343.906,14.301 365.5,26C 440.155,66.8572 484.822,129.357 499.5,213.5C 499.5,218.833 499.5,224.167 499.5,229.5C 499.014,221.37 497.68,213.37 495.5,205.5C 495.5,204.833 495.5,204.167 495.5,203.5C 491.344,179.832 483.677,157.498 472.5,136.5C 458.896,108.297 440.23,83.9637 416.5,63.5C 400.153,48.8303 382.153,36.4969 362.5,26.5C 362.167,26.5 361.833,26.5 361.5,26.5C 354.762,22.1358 347.429,18.8025 339.5,16.5C 336.61,14.267 333.277,12.9337 329.5,12.5C 319.026,9.21166 308.36,6.21166 297.5,3.5 Z"/></g>
<g><path style="opacity:1" fill="#e7fbfe" d="M 195.5,116.5 C 197.837,118.965 199.337,121.965 200,125.5C 201.071,132.753 200.238,139.753 197.5,146.5C 196.833,147.167 196.167,147.833 195.5,148.5C 196.455,142.57 197.455,136.737 198.5,131C 198.189,125.967 197.189,121.134 195.5,116.5 Z"/></g>
<g><path style="opacity:1" fill="#4093d2" d="M 197.5,146.5 C 197.149,148.869 196.982,151.203 197,153.5C 198.016,152.366 198.683,152.699 199,154.5C 199.333,152.833 199.667,151.167 200,149.5C 200.61,152.022 201.943,154.022 204,155.5C 206.105,158.011 205.938,160.344 203.5,162.5C 204.698,162.94 205.865,163.273 207,163.5C 208.743,168.253 210.577,172.92 212.5,177.5C 206.443,169.745 200.61,161.745 195,153.5C 194.616,151.803 194.782,150.137 195.5,148.5C 196.167,147.833 196.833,147.167 197.5,146.5 Z"/></g>
<g><path style="opacity:1" fill="#d5f0fd" d="M 346.5,161.5 C 345.837,225.842 346.504,289.842 348.5,353.5C 349.167,354.167 349.833,354.833 350.5,355.5C 348.278,355.822 346.444,355.155 345,353.5C 344.333,289.833 344.333,226.167 345,162.5C 345.383,161.944 345.883,161.611 346.5,161.5 Z"/></g>
<g><path style="opacity:0.998" fill="#3e94d5" d="M 472.5,136.5 C 483.677,157.498 491.344,179.832 495.5,203.5C 493.518,199.399 491.851,195.066 490.5,190.5C 490.078,186.993 489.244,183.66 488,180.5C 487.784,182.384 487.117,184.051 486,185.5C 485.234,182.42 484.234,179.42 483,176.5C 478.153,173.606 477.319,169.773 480.5,165C 479.422,164.326 478.755,163.326 478.5,162C 480.371,158.687 480.371,155.187 478.5,151.5C 477.675,150.614 476.675,150.281 475.5,150.5C 475.753,148.173 475.086,146.173 473.5,144.5C 472.614,145.325 472.281,146.325 472.5,147.5C 466.396,146.008 466.23,144.342 472,142.5C 472.495,140.527 472.662,138.527 472.5,136.5 Z"/></g>
<g><path style="opacity:1" fill="#86c0ea" d="M 320.5,161.5 C 321.665,219.332 321.832,277.332 321,335.5C 320.283,334.956 319.783,334.289 319.5,333.5C 320.499,276.336 320.832,219.002 320.5,161.5 Z"/></g>
<g><path style="opacity:1" fill="#3e91cd" d="M 302.5,140.5 C 305.627,149.961 311.627,156.961 320.5,161.5C 320.832,219.002 320.499,276.336 319.5,333.5C 316.441,329.772 313.774,325.772 311.5,321.5C 313.857,322.949 315.691,324.949 317,327.5C 317.915,326.672 318.581,325.672 319,324.5C 319.622,270.765 319.622,217.098 319,163.5C 316.54,162.042 314.373,160.209 312.5,158C 311.207,157.51 309.873,157.343 308.5,157.5C 308.725,155.284 307.892,153.617 306,152.5C 305.902,154.619 305.069,156.286 303.5,157.5C 302.048,154.718 302.381,152.218 304.5,150C 302.66,147.174 301.994,144.007 302.5,140.5 Z"/></g>
<g><path style="opacity:1" fill="#4f94cc" d="M 151.5,159.5 C 153.368,160.263 155.035,161.263 156.5,162.5C 156.667,225.834 156.5,289.168 156,352.5C 155.329,353.252 154.496,353.586 153.5,353.5C 153.833,352.833 154.167,352.167 154.5,351.5C 154.833,288.496 154.5,225.496 153.5,162.5C 152.081,161.995 151.415,160.995 151.5,159.5 Z"/></g>
<g><path style="opacity:1" fill="#3391d6" d="M 154.5,351.5 C 154.167,352.167 153.833,352.833 153.5,353.5C 147.81,356.858 143.477,361.525 140.5,367.5C 140.068,368.71 139.401,369.71 138.5,370.5C 138.841,366.144 140.174,362.144 142.5,358.5C 140.775,356.504 138.942,356.838 137,359.5C 136.667,362.5 136.333,365.5 136,368.5C 135.009,369.939 133.676,370.939 132,371.5C 131.667,374.833 131.333,378.167 131,381.5C 129.569,377.365 129.069,373.032 129.5,368.5C 130.5,368.5 131.5,368.5 132.5,368.5C 132.717,365.565 133.383,362.731 134.5,360C 133.089,357.337 132.089,354.504 131.5,351.5C 133.838,352.437 136.005,353.77 138,355.5C 139.756,354.104 141.256,352.437 142.5,350.5C 143.308,350.808 143.975,351.308 144.5,352C 143.663,353.011 143.33,354.178 143.5,355.5C 146.358,354.493 148.858,352.827 151,350.5C 151.167,292.164 151.667,233.83 152.5,175.5C 153.167,234.332 153.833,292.999 154.5,351.5 Z"/></g>
<g><path style="opacity:1" fill="#e8fefe" d="M 156.5,162.5 C 157.499,226.331 157.832,290.331 157.5,354.5C 154.018,356.056 150.685,357.722 147.5,359.5C 147.762,360.978 147.429,362.311 146.5,363.5C 145.914,363.291 145.414,362.957 145,362.5C 144.688,365.309 143.188,366.976 140.5,367.5C 143.477,361.525 147.81,356.858 153.5,353.5C 154.496,353.586 155.329,353.252 156,352.5C 156.5,289.168 156.667,225.834 156.5,162.5 Z"/></g>
<g><path style="opacity:1" fill="#408cc6" d="M 353.5,157.5 C 353.297,159.638 352.297,161.305 350.5,162.5C 349.675,163.386 348.675,163.719 347.5,163.5C 347.174,226.875 347.507,290.208 348.5,353.5C 346.504,289.842 345.837,225.842 346.5,161.5C 348.996,160.42 351.33,159.086 353.5,157.5 Z"/></g>
<g><path style="opacity:1" fill="#418fc3" d="M 182.5,178.5 C 183.6,179.605 184.267,180.938 184.5,182.5C 183.883,182.389 183.383,182.056 183,181.5C 182.333,238.167 182.333,294.833 183,351.5C 185.159,352.155 186.659,353.488 187.5,355.5C 185.181,355.008 183.181,354.008 181.5,352.5C 181.168,294.331 181.501,236.331 182.5,178.5 Z"/></g>
<g><path style="opacity:1" fill="#3092da" d="M 184.5,182.5 C 189.992,189.478 194.992,196.812 199.5,204.5C 200.265,207.096 200.599,209.763 200.5,212.5C 201.5,212.5 202.5,212.5 203.5,212.5C 203.167,215.167 202.833,217.833 202.5,220.5C 203.5,220.5 204.5,220.5 205.5,220.5C 205.715,224.321 207.382,227.321 210.5,229.5C 210.242,227.242 210.242,224.909 210.5,222.5C 211.945,224.394 213.612,226.06 215.5,227.5C 220.523,233.867 225.19,240.534 229.5,247.5C 229.526,250.951 231.026,253.618 234,255.5C 234.662,257.813 235.162,260.146 235.5,262.5C 237.433,262.729 239.1,263.562 240.5,265C 241.328,266.992 242.661,268.492 244.5,269.5C 244.539,270.583 244.873,271.583 245.5,272.5C 243.876,273.869 243.376,275.536 244,277.5C 245.333,276.167 246.667,276.167 248,277.5C 247.865,279.425 247.698,281.425 247.5,283.5C 246.5,283.5 245.5,283.5 244.5,283.5C 244.5,285.167 244.5,286.833 244.5,288.5C 245.873,288.657 247.207,288.49 248.5,288C 248.043,287.586 247.709,287.086 247.5,286.5C 249.149,285.352 250.649,284.019 252,282.5C 252.333,284.167 252.667,285.833 253,287.5C 254.465,286.631 255.631,287.131 256.5,289C 254.82,292.828 255.32,293.661 258,291.5C 259.719,294.288 261.885,296.621 264.5,298.5C 279.224,318.925 293.724,339.592 308,360.5C 308.667,361.5 308.667,362.5 308,363.5C 296.967,385.05 302.134,401.383 323.5,412.5C 323.611,413.117 323.944,413.617 324.5,414C 331.548,414.239 338.548,414.739 345.5,415.5C 351.857,423.868 357.857,432.535 363.5,441.5C 362.729,450.232 362.729,458.899 363.5,467.5C 363.833,467.5 364.167,467.5 364.5,467.5C 363.953,469.485 362.953,471.151 361.5,472.5C 354.732,476.881 347.398,480.214 339.5,482.5C 334.446,482.596 329.779,483.929 325.5,486.5C 321.919,485.802 322.252,484.969 326.5,484C 322.694,483.022 319.361,483.855 316.5,486.5C 317.729,487.281 319.062,487.781 320.5,488C 317.641,488.553 314.808,488.386 312,487.5C 308.937,487.935 308.77,488.768 311.5,490C 308.833,490 306.167,490 303.5,490C 297.578,493.812 290.911,495.478 283.5,495C 278.564,495.775 273.898,496.942 269.5,498.5C 268.833,498.5 268.5,498.833 268.5,499.5C 255.5,499.5 242.5,499.5 229.5,499.5C 228.432,498.566 227.099,498.232 225.5,498.5C 220.402,497.043 215.069,496.376 209.5,496.5C 207.435,496.483 205.435,496.15 203.5,495.5C 193.294,491.44 182.627,488.273 171.5,486C 171.833,485.667 172.167,485.333 172.5,485C 167.195,483.643 161.862,482.476 156.5,481.5C 153.903,480.111 151.57,478.278 149.5,476C 146.881,475.849 144.547,475.015 142.5,473.5C 143.518,472.148 144.851,471.148 146.5,470.5C 145.132,467.405 142.966,466.738 140,468.5C 138.374,467.711 136.874,466.711 135.5,465.5C 134.667,461.514 134.501,457.514 135,453.5C 133.315,451.983 131.815,450.316 130.5,448.5C 134.003,445.965 136.67,442.799 138.5,439C 136.892,436.815 135.892,434.315 135.5,431.5C 137.912,431.244 139.579,432.244 140.5,434.5C 138.438,428.268 140.604,423.601 147,420.5C 148.439,417.397 150.273,414.564 152.5,412C 153.793,411.51 155.127,411.343 156.5,411.5C 172.209,415.994 185.209,411.994 195.5,399.5C 197.048,399.179 197.715,398.179 197.5,396.5C 198.5,396.5 199.5,396.5 200.5,396.5C 201.871,388.821 203.038,381.154 204,373.5C 200.605,372.231 198.771,369.731 198.5,366C 199.459,363.88 199.626,361.713 199,359.5C 198.632,360.91 197.799,361.91 196.5,362.5C 195.305,360.703 193.638,359.703 191.5,359.5C 189.833,358.5 188.5,357.167 187.5,355.5C 186.659,353.488 185.159,352.155 183,351.5C 182.333,294.833 182.333,238.167 183,181.5C 183.383,182.056 183.883,182.389 184.5,182.5 Z"/></g>
<g><path style="opacity:1" fill="#cfedfe" d="M 182.5,178.5 C 181.501,236.331 181.168,294.331 181.5,352.5C 180.335,294.001 180.168,235.335 181,176.5C 181.717,177.044 182.217,177.711 182.5,178.5 Z"/></g>
<g><path style="opacity:1" fill="#3f93d3" d="M 199.5,204.5 C 205.57,211.635 210.903,219.301 215.5,227.5C 213.612,226.06 211.945,224.394 210.5,222.5C 210.242,224.909 210.242,227.242 210.5,229.5C 207.382,227.321 205.715,224.321 205.5,220.5C 204.5,220.5 203.5,220.5 202.5,220.5C 202.833,217.833 203.167,215.167 203.5,212.5C 202.5,212.5 201.5,212.5 200.5,212.5C 200.599,209.763 200.265,207.096 199.5,204.5 Z"/></g>
<g><path style="opacity:0.871" fill="#5ea0d3" d="M 495.5,205.5 C 497.68,213.37 499.014,221.37 499.5,229.5C 499.5,230.833 499.5,232.167 499.5,233.5C 498.732,232.737 498.232,231.737 498,230.5C 496.837,222.191 496.004,213.858 495.5,205.5 Z"/></g>
<g><path style="opacity:0.812" fill="#589cd0" d="M 2.5,209.5 C 2.66602,214.844 2.49935,220.177 2,225.5C 1.3918,227.066 0.558465,228.4 -0.5,229.5C -0.5,228.167 -0.5,226.833 -0.5,225.5C 0.238132,220.125 1.23813,214.791 2.5,209.5 Z"/></g>
<g><path style="opacity:1" fill="#4f97cf" d="M 229.5,247.5 C 234.992,254.478 239.992,261.812 244.5,269.5C 242.661,268.492 241.328,266.992 240.5,265C 239.1,263.562 237.433,262.729 235.5,262.5C 235.162,260.146 234.662,257.813 234,255.5C 231.026,253.618 229.526,250.951 229.5,247.5 Z"/></g>
<g><path style="opacity:0.922" fill="#4794ce" d="M 10.5,322.5 C 4.48734,305.111 1.15401,287.111 0.5,268.5C 0.368989,267.761 0.535656,267.094 1,266.5C 1.69416,267.818 2.52749,268.651 3.5,269C 2.92766,271.291 2.59433,273.625 2.5,276C 3.44257,285.934 4.94257,295.767 7,305.5C 7.17049,303.285 7.83716,301.285 9,299.5C 9.4525,303.177 9.28584,306.844 8.5,310.5C 9.16992,314.51 9.83659,318.51 10.5,322.5 Z"/></g>
<g><path style="opacity:1" fill="#3c93d3" d="M 244.5,269.5 C 251.904,278.636 258.571,288.303 264.5,298.5C 261.885,296.621 259.719,294.288 258,291.5C 255.32,293.661 254.82,292.828 256.5,289C 255.631,287.131 254.465,286.631 253,287.5C 252.667,285.833 252.333,284.167 252,282.5C 250.649,284.019 249.149,285.352 247.5,286.5C 247.709,287.086 248.043,287.586 248.5,288C 247.207,288.49 245.873,288.657 244.5,288.5C 244.5,286.833 244.5,285.167 244.5,283.5C 245.5,283.5 246.5,283.5 247.5,283.5C 247.698,281.425 247.865,279.425 248,277.5C 246.667,276.167 245.333,276.167 244,277.5C 243.376,275.536 243.876,273.869 245.5,272.5C 244.873,271.583 244.539,270.583 244.5,269.5 Z"/></g>
<g><path style="opacity:0.988" fill="#4493d1" d="M 498.5,276.5 C 496.888,292.326 493.555,307.66 488.5,322.5C 489.163,318.51 489.83,314.51 490.5,310.5C 488.768,305.394 489.935,301.061 494,297.5C 494.333,292.833 494.667,288.167 495,283.5C 495.615,280.697 496.782,278.364 498.5,276.5 Z"/></g>
<g><path style="opacity:1" fill="#4392d0" d="M 283.5,280.5 C 285.024,281.174 286.358,282.174 287.5,283.5C 288.386,284.325 288.719,285.325 288.5,286.5C 289.5,286.5 290.5,286.5 291.5,286.5C 291.343,287.873 291.51,289.207 292,290.5C 293.395,291.815 294.395,291.481 295,289.5C 295.199,291.402 296.033,292.902 297.5,294C 296.483,295.049 296.316,296.216 297,297.5C 298.961,300.962 301.128,304.296 303.5,307.5C 304.631,308.604 305.465,308.271 306,306.5C 306.833,308 308,309.167 309.5,310C 307,312.558 307.5,314.725 311,316.5C 311.49,317.793 311.657,319.127 311.5,320.5C 301.687,307.554 292.353,294.221 283.5,280.5 Z"/></g>
<g><path style="opacity:0.992" fill="#4393cf" d="M 11.5,327.5 C 14.349,330.205 16.1824,333.538 17,337.5C 17.3076,336.692 17.8076,336.025 18.5,335.5C 19.4495,337.598 19.4495,339.765 18.5,342C 20.3891,346.079 21.7224,350.245 22.5,354.5C 18.2758,345.851 14.6091,336.851 11.5,327.5 Z"/></g>
<g><path style="opacity:1" fill="#4092d0" d="M 191.5,359.5 C 193.638,359.703 195.305,360.703 196.5,362.5C 197.799,361.91 198.632,360.91 199,359.5C 199.626,361.713 199.459,363.88 198.5,366C 198.771,369.731 200.605,372.231 204,373.5C 203.038,381.154 201.871,388.821 200.5,396.5C 199.5,396.5 198.5,396.5 197.5,396.5C 197.715,398.179 197.048,399.179 195.5,399.5C 203.273,385.21 201.94,371.877 191.5,359.5 Z"/></g>
<g><path style="opacity:1" fill="#4591ca" d="M 361.5,366.5 C 362.496,366.414 363.329,366.748 364,367.5C 367.138,376.22 367.305,385.054 364.5,394C 364.843,396.565 366.01,397.399 368,396.5C 368.558,399.934 369.391,403.267 370.5,406.5C 367.48,402.978 364.814,399.145 362.5,395C 366.732,385.299 366.398,375.799 361.5,366.5 Z"/></g>
<g><path style="opacity:0.839" fill="#4b93c9" d="M 464.5,377.5 C 461.402,382.709 458.068,387.709 454.5,392.5C 454.5,390.5 454.5,388.5 454.5,386.5C 455.552,386.649 456.552,386.483 457.5,386C 458.322,381.821 460.656,378.988 464.5,377.5 Z"/></g>
<g><path style="opacity:0.99" fill="#4593ce" d="M 44.5,393.5 C 47.3784,394.577 49.8784,396.244 52,398.5C 56.507,404.153 60.3403,410.153 63.5,416.5C 56.4611,409.426 50.1277,401.759 44.5,393.5 Z"/></g>
<g><path style="opacity:0.008" fill="#e4f8fd" d="M -0.5,268.5 C -0.166667,268.5 0.166667,268.5 0.5,268.5C 1.15401,287.111 4.48734,305.111 10.5,322.5C 10.6287,324.216 10.962,325.883 11.5,327.5C 14.6091,336.851 18.2758,345.851 22.5,354.5C 28.539,368.246 35.8724,381.246 44.5,393.5C 50.1277,401.759 56.4611,409.426 63.5,416.5C 68.1667,423.167 73.8333,428.833 80.5,433.5C 83.8062,436.14 86.8062,439.14 89.5,442.5C 77.3036,434.143 66.4703,424.143 57,412.5C 26.4497,375.394 7.28301,333.061 -0.5,285.5C -0.5,279.833 -0.5,274.167 -0.5,268.5 Z"/></g>
<g><path style="opacity:1" fill="#3f93d3" d="M 139.5,394.5 C 140.737,395.965 141.737,397.632 142.5,399.5C 143.29,400.794 144.29,401.961 145.5,403C 137.623,410.375 130.29,418.209 123.5,426.5C 123.5,424.833 123.5,423.167 123.5,421.5C 119.921,421.234 119.587,419.901 122.5,417.5C 125.479,418.356 126.812,417.023 126.5,413.5C 128.143,413.48 129.476,414.147 130.5,415.5C 131.711,414.726 131.711,413.893 130.5,413C 131.793,412.51 133.127,412.343 134.5,412.5C 131.065,407.477 132.398,404.81 138.5,404.5C 138.626,402.8 139.293,401.3 140.5,400C 139.767,398.234 139.433,396.401 139.5,394.5 Z"/></g>
<g><path style="opacity:1" fill="#4a91c6" d="M 323.5,412.5 C 329.153,413.831 334.82,413.831 340.5,412.5C 342.942,412.286 344.608,413.286 345.5,415.5C 338.548,414.739 331.548,414.239 324.5,414C 323.944,413.617 323.611,413.117 323.5,412.5 Z"/></g>
<g><path style="opacity:0.975" fill="#5499d1" d="M 439.5,411.5 C 435.534,416.801 431.2,421.801 426.5,426.5C 426.34,424.801 426.506,423.134 427,421.5C 430.46,420.605 433.127,418.605 435,415.5C 435.684,414.216 435.517,413.049 434.5,412C 436.134,411.506 437.801,411.34 439.5,411.5 Z"/></g>
<g><path style="opacity:1" fill="#4791c9" d="M 117.5,433.5 C 117.189,434.478 116.522,435.145 115.5,435.5C 107.863,431.554 99.8634,430.554 91.5,432.5C 93.7432,431.188 96.4098,430.522 99.5,430.5C 105.781,430.395 111.781,431.395 117.5,433.5 Z"/></g>
<g><path style="opacity:1" fill="#f6fcfd" d="M 142.5,399.5 C 144.086,400.413 145.586,400.413 147,399.5C 146.983,404.666 149.816,407.666 155.5,408.5C 156.298,408.957 156.631,409.624 156.5,410.5C 153.756,408.942 151.59,409.609 150,412.5C 141.876,422.959 133.376,433.126 124.5,443C 130.741,449.528 132.741,457.028 130.5,465.5C 115.18,456.83 100.846,446.663 87.5,435C 88.056,434.617 88.3893,434.117 88.5,433.5C 89.791,433.737 90.791,433.404 91.5,432.5C 99.8634,430.554 107.863,431.554 115.5,435.5C 116.522,435.145 117.189,434.478 117.5,433.5C 120.243,431.761 122.243,429.427 123.5,426.5C 130.29,418.209 137.623,410.375 145.5,403C 144.29,401.961 143.29,400.794 142.5,399.5 Z"/></g>
<g><path style="opacity:1" fill="#3e93d4" d="M 156.5,410.5 C 156.5,410.833 156.5,411.167 156.5,411.5C 155.127,411.343 153.793,411.51 152.5,412C 150.273,414.564 148.439,417.397 147,420.5C 140.604,423.601 138.438,428.268 140.5,434.5C 139.579,432.244 137.912,431.244 135.5,431.5C 135.892,434.315 136.892,436.815 138.5,439C 136.67,442.799 134.003,445.965 130.5,448.5C 131.815,450.316 133.315,451.983 135,453.5C 134.501,457.514 134.667,461.514 135.5,465.5C 136.874,466.711 138.374,467.711 140,468.5C 142.966,466.738 145.132,467.405 146.5,470.5C 144.851,471.148 143.518,472.148 142.5,473.5C 144.547,475.015 146.881,475.849 149.5,476C 151.57,478.278 153.903,480.111 156.5,481.5C 153.888,480.629 151.221,479.963 148.5,479.5C 142.035,476.1 135.702,472.433 129.5,468.5C 127.871,466.804 128.204,465.804 130.5,465.5C 132.741,457.028 130.741,449.528 124.5,443C 133.376,433.126 141.876,422.959 150,412.5C 151.59,409.609 153.756,408.942 156.5,410.5 Z"/></g>
<g><path style="opacity:0.2" fill="#e0fafe" d="M 89.5,442.5 C 93.5719,444.208 96.9052,446.874 99.5,450.5C 95.7929,448.312 92.4595,445.645 89.5,442.5 Z"/></g>
<g><path style="opacity:1" fill="#579acf" d="M 363.5,441.5 C 365.166,443.187 366.5,445.187 367.5,447.5C 363.98,453.699 362.647,460.366 363.5,467.5C 362.729,458.899 362.729,450.232 363.5,441.5 Z"/></g>
<g><path style="opacity:0.953" fill="#4993cc" d="M 80.5,433.5 C 82.0936,433.92 83.5936,434.586 85,435.5C 86.0769,434.571 87.2436,433.904 88.5,433.5C 88.3893,434.117 88.056,434.617 87.5,435C 100.846,446.663 115.18,456.83 130.5,465.5C 128.204,465.804 127.871,466.804 129.5,468.5C 123.992,465.245 118.325,462.245 112.5,459.5C 108.698,455.763 104.365,452.763 99.5,450.5C 96.9052,446.874 93.5719,444.208 89.5,442.5C 86.8062,439.14 83.8062,436.14 80.5,433.5 Z"/></g>
<g><path style="opacity:0.071" fill="#e0f7fe" d="M 99.5,450.5 C 104.365,452.763 108.698,455.763 112.5,459.5C 107.635,457.237 103.302,454.237 99.5,450.5 Z"/></g>
<g><path style="opacity:0.992" fill="#4c94cd" d="M 380.5,421.5 C 382.776,423.272 384.943,425.272 387,427.5C 387.483,428.448 387.649,429.448 387.5,430.5C 392.844,430.334 398.177,430.501 403.5,431C 407.698,432.771 411.698,434.604 415.5,436.5C 399.183,450.994 381.183,462.994 361.5,472.5C 362.953,471.151 363.953,469.485 364.5,467.5C 380.483,458.5 395.483,448 409.5,436C 407.044,434.289 404.377,432.956 401.5,432C 396.5,431.667 391.5,431.333 386.5,431C 384.364,427.89 382.364,424.723 380.5,421.5 Z"/></g>
<g><path style="opacity:0.086" fill="#e4f9fe" d="M 499.5,268.5 C 499.5,274.167 499.5,279.833 499.5,285.5C 479.202,389.971 418.535,459.138 317.5,493C 306.919,495.266 296.253,497.432 285.5,499.5C 279.833,499.5 274.167,499.5 268.5,499.5C 268.5,498.833 268.833,498.5 269.5,498.5C 293.881,497.095 317.214,491.761 339.5,482.5C 347.398,480.214 354.732,476.881 361.5,472.5C 381.183,462.994 399.183,450.994 415.5,436.5C 419.397,433.391 423.064,430.057 426.5,426.5C 431.2,421.801 435.534,416.801 439.5,411.5C 441.463,410.04 443.296,408.373 445,406.5C 448.414,401.934 451.58,397.268 454.5,392.5C 458.068,387.709 461.402,382.709 464.5,377.5C 474.9,360.353 482.9,342.019 488.5,322.5C 493.555,307.66 496.888,292.326 498.5,276.5C 498.194,273.615 498.527,270.948 499.5,268.5 Z"/></g>
<g><path style="opacity:0.098" fill="#e2f8fd" d="M 112.5,459.5 C 118.325,462.245 123.992,465.245 129.5,468.5C 135.702,472.433 142.035,476.1 148.5,479.5C 135.568,474.371 123.568,467.704 112.5,459.5 Z"/></g>
<g><path style="opacity:0.078" fill="#d7f5fc" d="M 148.5,479.5 C 151.221,479.963 153.888,480.629 156.5,481.5C 159.055,482.461 161.388,483.794 163.5,485.5C 158.105,484.296 153.105,482.296 148.5,479.5 Z"/></g>
<g><path style="opacity:1" fill="#4494d2" d="M 339.5,482.5 C 317.214,491.761 293.881,497.095 269.5,498.5C 273.898,496.942 278.564,495.775 283.5,495C 290.911,495.478 297.578,493.812 303.5,490C 306.167,490 308.833,490 311.5,490C 308.77,488.768 308.937,487.935 312,487.5C 314.808,488.386 317.641,488.553 320.5,488C 319.062,487.781 317.729,487.281 316.5,486.5C 319.361,483.855 322.694,483.022 326.5,484C 322.252,484.969 321.919,485.802 325.5,486.5C 329.779,483.929 334.446,482.596 339.5,482.5 Z"/></g>
<g><path style="opacity:1" fill="#4995d0" d="M 156.5,481.5 C 161.862,482.476 167.195,483.643 172.5,485C 172.167,485.333 171.833,485.667 171.5,486C 182.627,488.273 193.294,491.44 203.5,495.5C 197.745,494.819 192.078,493.819 186.5,492.5C 183.146,490.742 179.479,489.742 175.5,489.5C 171.714,487.571 167.714,486.238 163.5,485.5C 161.388,483.794 159.055,482.461 156.5,481.5 Z"/></g>
<g><path style="opacity:0.088" fill="#d8f1f8" d="M 163.5,485.5 C 167.714,486.238 171.714,487.571 175.5,489.5C 171.085,489.139 167.085,487.806 163.5,485.5 Z"/></g>
<g><path style="opacity:0.125" fill="#e2f4fe" d="M 175.5,489.5 C 179.479,489.742 183.146,490.742 186.5,492.5C 182.521,492.258 178.854,491.258 175.5,489.5 Z"/></g>
<g><path style="opacity:0.835" fill="#6aa5d4" d="M 209.5,496.5 C 215.069,496.376 220.402,497.043 225.5,498.5C 219.916,498.745 214.583,498.078 209.5,496.5 Z"/></g>
<g><path style="opacity:0.145" fill="#e6fafe" d="M 186.5,492.5 C 192.078,493.819 197.745,494.819 203.5,495.5C 205.435,496.15 207.435,496.483 209.5,496.5C 214.583,498.078 219.916,498.745 225.5,498.5C 227.099,498.232 228.432,498.566 229.5,499.5C 224.167,499.5 218.833,499.5 213.5,499.5C 207.907,497.789 202.241,496.956 196.5,497C 193.215,495.187 189.882,493.687 186.5,492.5 Z"/></g>
</svg>
